<svg xmlns="http://www.w3.org/2000/svg" viewBox="0 0 512.002 512.002"><path d="M217.212 23.429a10.1 10.1 0 00-7.08-2.93c-2.63 0-5.21 1.07-7.07 2.93-1.86 1.86-2.93 4.44-2.93 7.07s1.07 5.21 2.93 7.07c1.86 1.86 4.44 2.93 7.07 2.93a10.1 10.1 0 007.08-2.93c1.86-1.86 2.92-4.44 2.92-7.07s-1.06-5.21-2.92-7.07zM352.962 186.826l-8.285-42.013c-3.378-17.136-11.702-32.713-24.071-45.046L306.44 85.64V30.499c0-5.523-4.477-10-10-10s-10 4.477-10 10V89.79c0 2.657 1.058 5.205 2.939 7.081l17.105 17.057a67.302 67.302 0 0118.571 34.753l8.285 42.013a6.126 6.126 0 01-.964 4.682 6.125 6.125 0 01-4.019 2.589c-3.185.568-6.293-1.461-7.065-4.608l-4.281-17.46c-1.509-6.152-7.167-10.069-13.456-9.306-6.288.76-10.852 5.909-10.852 12.243v81.341a5.829 5.829 0 01-5.822 5.822c-2.951 0-5.39-2.208-5.766-5.057v-42.475c0-5.523-4.477-10-10-10l-.028.001-.028-.001c-5.523 0-10 4.477-10 10v41.71c0 .545.023 1.085.056 1.621v13.322a5.829 5.829 0 01-5.822 5.822 5.829 5.829 0 01-5.822-5.822V261.79a26.18 26.18 0 00.056-1.615v-41.71c0-5.523-4.477-10-10-10l-.028.001-.028-.001c-5.523 0-10 4.477-10 10v42.472c-.375 2.851-2.815 5.061-5.767 5.061a5.829 5.829 0 01-5.822-5.822v-14.918a26.18 26.18 0 00.056-1.615v-25.178c0-5.523-4.477-10-10-10l-.028.001-.028-.001c-5.523 0-10 4.477-10 10v25.939c-.375 2.851-2.815 5.061-5.767 5.061a5.829 5.829 0 01-5.822-5.822v-87.928c0-18.074 7.048-35.057 19.847-47.819l11.056-11.024a10.002 10.002 0 002.939-7.081V66.16c0-5.523-4.477-10-10-10s-10 4.477-10 10v19.48l-8.117 8.093c-16.589 16.542-25.725 38.554-25.725 61.981v87.928c0 14.238 11.584 25.822 25.822 25.822 2.475 0 4.867-.357 7.135-1.011 3.459 10.189 13.11 17.543 24.453 17.543 2.67 0 5.246-.407 7.67-1.163 3.847 9.436 13.116 16.106 23.918 16.106s20.074-6.669 23.921-16.105c2.424.756 5 1.163 7.67 1.163 14.238 0 25.822-11.584 25.822-25.822v-46.583c5.441 3.656 12.237 5.283 19.127 4.07 6.982-1.231 13.035-5.131 17.043-10.98s5.459-12.9 4.088-19.856zM249.074 389.195a25.94 25.94 0 00-4.436-5.682c7.09-8.092 8.631-20.123 2.961-29.944a25.723 25.723 0 00-4.831-6.05 25.769 25.769 0 004.557-9.183c1.785-6.663.869-13.621-2.58-19.595-5.4-9.353-15.808-14.045-25.901-12.661a25.868 25.868 0 00-2.835-7.223c-3.448-5.973-9.017-10.246-15.679-12.031-6.663-1.786-13.621-.87-19.595 2.58l-40.342 23.291c.445-6.54-1.541-13.238-6.039-18.598-4.558-5.432-10.961-8.724-18.03-9.271-7.065-.541-13.902 1.722-19.241 6.388l-32.242 28.182c-13.151 11.495-22.479 26.491-26.976 43.369l-5.15 19.332-27.713 16c-4.783 2.761-6.422 8.877-3.66 13.66a9.992 9.992 0 0013.66 3.66l31.308-18.076a10.001 10.001 0 004.663-6.085l6.219-23.343a67.293 67.293 0 0120.812-33.459l32.242-28.182a6.117 6.117 0 014.537-1.506 6.123 6.123 0 014.251 2.186 6.185 6.185 0 01-.458 8.422l-12.98 12.438c-4.574 4.382-5.134 11.239-1.332 16.306 3.803 5.067 10.544 6.446 16.029 3.277l70.443-40.67a5.784 5.784 0 014.418-.582 5.785 5.785 0 013.536 2.713 5.79 5.79 0 01.582 4.418c-.352 1.315-1.154 2.42-2.248 3.202l-36.616 21.14c-4.783 2.761-6.422 8.877-3.66 13.66l.015.023.013.025c2.761 4.783 8.876 6.421 13.66 3.66l36.123-20.855a26.4 26.4 0 001.375-.858l11.538-6.661a5.83 5.83 0 017.954 2.131 5.83 5.83 0 01-2.131 7.954l-11.543 6.664a26.79 26.79 0 00-1.426.759l-36.123 20.855c-4.783 2.761-6.422 8.877-3.66 13.66.375.647.833 1.256 1.341 1.805a10 10 0 007.356 3.245 9.959 9.959 0 004.991-1.341l36.781-21.236c2.656-1.101 5.79-.094 7.267 2.463a5.83 5.83 0 01-2.131 7.954l-12.914 7.456c-.482.24-.961.491-1.432.762l-21.805 12.589c-4.783 2.761-6.422 8.877-3.66 13.66 1.78 3.069 5.143 5.05 8.697 5.05a9.959 9.959 0 004.991-1.341l22.467-12.971a5.767 5.767 0 013.728-.248 5.787 5.787 0 013.535 2.713 5.83 5.83 0 01-2.131 7.954l-32.049 18.503-44.099 25.461c-15.653 9.037-33.885 11.423-51.336 6.721l-15.075-4.063a9.995 9.995 0 00-7.602.996l-31.308 18.076c-4.783 2.761-6.422 8.877-3.66 13.66a9.992 9.992 0 0013.66 3.66l27.713-16 11.067 2.983c22.619 6.094 46.251 3.001 66.54-8.712l25.255-14.581.001-.001 18.843-10.879 1.711-.988 30.338-17.516c12.331-7.119 16.57-22.943 9.451-35.274zM507 398.097l-27.713-16-2.951-11.076c-6.031-22.638-20.526-41.556-40.814-53.27l-44.099-25.461-32.049-18.503c-5.974-3.449-12.933-4.365-19.594-2.58-6.662 1.785-12.231 6.058-15.679 12.031a25.715 25.715 0 00-2.689 6.673 25.693 25.693 0 00-11.744.386c-6.662 1.785-12.231 6.058-15.679 12.031a25.902 25.902 0 00-2.834 7.222c-10.093-1.383-20.501 3.31-25.901 12.662-5.4 9.353-4.26 20.713 1.985 28.762a25.889 25.889 0 00-4.838 6.066c-7.119 12.331-2.879 28.155 9.451 35.274l40.342 23.292c-5.885 2.885-10.695 7.955-13.088 14.529-2.425 6.663-2.075 13.854.986 20.25 3.062 6.396 8.443 11.179 15.153 13.469l40.526 13.832c16.531 5.643 34.183 6.222 51.047 1.678l19.317-5.206 27.713 16a9.995 9.995 0 0013.66-3.66c2.762-4.783 1.123-10.899-3.66-13.66l-31.308-18.076a9.99 9.99 0 00-7.602-.995l-23.324 6.285a67.288 67.288 0 01-39.383-1.294l-40.527-13.832c-1.582-.54-2.851-1.668-3.573-3.176s-.804-3.204-.232-4.775c1.107-3.044 4.413-4.717 7.523-3.814l17.261 5.023c6.083 1.772 12.301-1.173 14.788-7 2.486-5.826.31-12.353-5.176-15.52l-70.443-40.67a5.83 5.83 0 01-2.131-7.954 5.787 5.787 0 013.535-2.713 5.77 5.77 0 013.727.247l36.786 21.238a9.946 9.946 0 004.991 1.341c2.753 0 5.433-1.154 7.351-3.239.511-.55.97-1.161 1.347-1.811 2.762-4.783 1.123-10.899-3.66-13.66l-36.122-20.855a27.085 27.085 0 00-1.435-.764l-11.535-6.659a5.83 5.83 0 01-2.131-7.954 5.786 5.786 0 013.536-2.713 5.786 5.786 0 014.417.582l11.537 6.661c.449.298.906.587 1.376.859l36.122 20.855a9.946 9.946 0 004.991 1.341c2.754 0 5.434-1.155 7.352-3.241.511-.549.968-1.16 1.346-1.809 2.762-4.783 1.123-10.899-3.66-13.66l-36.617-21.141c-1.093-.782-1.894-1.887-2.247-3.202-.402-1.502-.196-3.071.582-4.418s2.033-2.311 3.536-2.713a5.785 5.785 0 014.418.582l12.919 7.459c.446.296.901.584 1.371.856l21.805 12.589a9.946 9.946 0 004.991 1.341c2.753 0 5.434-1.155 7.351-3.24.511-.551.967-1.161 1.346-1.81 2.762-4.783 1.123-10.899-3.66-13.66l-22.464-12.97c-2.281-1.75-2.975-4.968-1.5-7.524a5.783 5.783 0 013.535-2.713 5.788 5.788 0 014.418.582l30.338 17.516 1.711.988 18.843 10.879.001.001 25.255 14.581c15.653 9.038 26.835 23.633 31.488 41.098l4.02 15.086a9.999 9.999 0 004.663 6.085l31.308 18.076a9.995 9.995 0 0013.66-3.66c2.759-4.779 1.12-10.895-3.663-13.657z"/></svg>